PathFileType	4	(X/Y/Z)	C:/Users/opensim2020/Desktop/walking_exp_matlab/subject03_walking09_straight_02.trc	
DataRate	CameraRate	NumFrames	NumMarkers	Units	OrigDataRate	OrigDataStartFrame	OrigNumFrames	
100.00	100.00	8	47	mm	100.00	1927	364	
Frame#	Time	LFHD			RFHD			LBHD			RBHD			C7			T10			CLAV			STRN			RBAK			LSHO			LUPA			LELB			LFRM			LWRA			LWRB			LFIN			RSHO			RUPA			RELB			RFRM			RWRA			RWRB			RFIN			LASI			RASI			LPSI			RPSI			LTHI			LKNE			LTIB			LANK			LHEE			LTOE			RTHI			RKNE			RTIB			RANK			RHEE			RTOE			*39			*40			*41			*42			*43			*44			*45			*46			
		X1	Y1	Z1	X2	Y2	Z2	X3	Y3	Z3	X4	Y4	Z4	X5	Y5	Z5	X6	Y6	Z6	X7	Y7	Z7	X8	Y8	Z8	X9	Y9	Z9	X10	Y10	Z10	X11	Y11	Z11	X12	Y12	Z12	X13	Y13	Z13	X14	Y14	Z14	X15	Y15	Z15	X16	Y16	Z16	X17	Y17	Z17	X18	Y18	Z18	X19	Y19	Z19	X20	Y20	Z20	X21	Y21	Z21	X22	Y22	Z22	X23	Y23	Z23	X24	Y24	Z24	X25	Y25	Z25	X26	Y26	Z26	X27	Y27	Z27	X28	Y28	Z28	X29	Y29	Z29	X30	Y30	Z30	X31	Y31	Z31	X32	Y32	Z32	X33	Y33	Z33	X34	Y34	Z34	X35	Y35	Z35	X36	Y36	Z36	X37	Y37	Z37	X38	Y38	Z38	X39	Y39	Z39	X40	Y40	Z40	X41	Y41	Z41	X42	Y42	Z42	X43	Y43	Z43	X44	Y44	Z44	X45	Y45	Z45	X46	Y46	Z46	X47	Y47	Z47	

92	0.910	1536.87158	876.34131	1629.68420	1406.06628	898.51923	1635.74902	1552.21594	1000.13892	1576.83630	1422.66663	1016.94659	1582.84802	1496.61633	1033.47192	1426.48816	1495.16968	1075.04968	1114.26428	1477.63232	913.69641	1346.91882	1474.36572	874.52612	1181.03564	1403.01794	1102.61975	1256.16589	1637.31128	934.58923	1381.44568	1710.94556	913.45752	1189.08911	1724.37109	885.69153	1069.72009	1718.39197	836.66309	949.27118	1683.77283	801.87018	836.63745	1738.54004	814.56653	839.18103	1725.96301	783.10291	761.36725	1325.60229	976.51477	1373.79272	1250.65564	979.28113	1151.40759	1232.22400	963.06311	1041.32361	1224.22461	938.91846	906.55695	1250.59143	896.17065	813.26874	1213.70837	935.67285	806.52063	1217.65442	906.64478	737.35211	1591.71228	894.40765	948.10126	1353.67676	921.13776	947.52002	1558.29358	1060.97034	973.76581	1410.10388	1076.68762	975.34662	1627.82703	954.28693	646.90973	1583.51367	957.30066	470.11084	1585.13684	1012.39307	282.11752	1541.42798	1034.54114	72.68191	1506.23169	1076.00134	37.93541	1503.34021	883.06073	35.43370	1302.37061	931.69183	653.63995	1321.60767	872.08447	482.29227	1326.33252	966.88507	314.44772	1378.09583	1060.54480	122.00730	1437.06042	1105.20313	101.33200	1372.50684	943.19403	47.07505	1501.94946	969.79370	1685.49280																					 
93	0.920	1536.67053	869.99554	1629.42554	1405.84351	892.29089	1635.48730	1552.59387	994.12726	1576.99219	1422.67773	1010.83929	1582.78430	1496.90613	1027.46875	1426.45264	1495.50891	1069.09656	1114.11096	1477.64551	907.84814	1346.74023	1474.63745	869.17181	1180.74707	1403.64453	1096.94775	1255.90027	1637.26404	928.22247	1381.37366	1711.03345	905.35315	1189.52734	1724.54858	876.32837	1070.48962	1718.46252	825.38898	950.78113	1683.63818	788.88361	838.91620	1738.22034	801.67462	841.01141	1725.45850	768.88330	763.76428	1325.90503	971.38708	1373.63879	1250.83130	973.84979	1151.17480	1232.35608	957.73798	1041.11011	1224.47559	932.95526	906.44562	1251.08606	889.93561	813.47198	1214.00830	929.27222	806.43622	1217.99683	899.98450	737.59467	1592.19910	888.81543	947.82568	1354.06909	914.89349	947.81329	1558.22009	1055.20605	973.41278	1410.14917	1070.67419	975.25452	1627.62036	949.76160	646.63287	1583.44531	954.22852	469.90854	1585.00757	1010.65271	282.23846	1541.40857	1034.43445	73.10674	1506.01257	1075.94446	38.40343	1503.35193	882.93640	35.37587	1303.06470	922.51343	654.22003	1322.61768	862.40717	483.28925	1327.13550	951.66431	312.26416	1378.89648	1036.74060	115.65278	1438.03223	1080.20117	92.89485	1371.95068	916.29407	46.34345																								 
94	0.930	1536.42444	863.65552	1629.19312	1405.66113	886.12109	1635.16748	1552.52563	987.84900	1576.89417	1422.58459	1004.60010	1582.57166	1497.12000	1021.39838	1426.21777	1495.76550	1063.15576	1113.95325	1477.56030	901.97052	1346.50916	1474.54431	863.06323	1180.51123	1404.30200	1091.22778	1255.60181	1637.15784	921.81421	1381.24829	1710.93066	897.36780	1189.85791	1724.38013	866.91425	1071.03906	1718.38220	814.38690	952.32745	1683.30566	775.76379	841.22327	1737.76477	789.03564	842.85455	1724.95093	754.85815	766.28522	1325.96289	965.78467	1373.13452	1250.96631	968.55524	1150.89636	1232.61230	952.28680	1040.81812	1224.68164	926.99896	906.33380	1251.32629	883.36554	813.65845	1214.48181	922.70660	806.28564	1218.51709	892.97205	737.44794	1592.64832	882.95972	947.52069	1354.40930	908.72235	948.08075	1558.17346	1049.45630	973.04596	1410.08606	1064.61218	975.05975	1627.33606	945.24866	646.37268	1583.39722	951.27643	469.77332	1584.81384	1009.04254	282.36453	1541.35486	1034.21021	73.25303	1505.84949	1075.87024	38.94370	1503.38538	882.66833	35.48444	1302.91589	914.42542	654.92181	1323.54089	853.25366	484.22406	1328.16919	936.43188	309.96384	1379.69885	1012.71600	109.54665	1439.50293	1054.94202	84.86374	1371.23755	889.32037	45.85226	1501.70374	957.32697	1686.05908																					 
95	0.940	1536.16577	857.31830	1628.88574	1405.40283	879.90851	1634.81934	1552.48108	981.53784	1576.72241	1422.54163	998.49695	1582.38733	1497.35242	1015.45074	1426.07898	1495.85864	1057.20557	1113.74963	1477.42676	896.03278	1346.15503	1474.61401	857.13129	1180.28931	1404.81934	1085.53943	1255.28271	1637.08728	915.46399	1381.15137	1710.59326	889.23907	1189.92822	1724.48901	857.96429	1071.82458	1718.13416	803.53925	953.85889	1682.81909	762.91345	843.53754	1737.21887	776.60419	844.71667	1724.29395	741.05902	768.82373	1325.85413	960.03070	1372.62463	1251.17761	963.18170	1150.51538	1232.78784	946.84027	1040.49573	1224.97485	920.96063	906.07178	1251.36462	876.47266	813.84747	1214.92920	916.19202	806.05133	1219.04529	885.91125	737.38635	1593.05029	877.10236	947.22919	1354.67139	902.51471	948.26532	1558.03186	1043.70557	972.62988	1409.94592	1058.53052	974.80322	1627.01636	940.73712	646.09131	1582.98706	948.12939	469.34662	1584.65247	1007.55896	282.57339	1540.74548	1033.76978	73.28246	1505.46655	1075.61414	39.14729	1503.44202	882.42816	35.51971	1302.66565	905.79852	655.47876	1324.48413	844.40753	484.91806	1329.13074	921.36993	307.62756	1380.65088	988.10468	103.88270	1440.79114	1028.73279	77.13053	1370.48474	862.37341	45.78826	1501.50647	950.96771	1685.85046																					 
96	0.950	1535.84814	850.97046	1628.50586	1405.10632	873.76947	1634.43518	1551.90686	974.95825	1576.34778	1422.69519	992.59839	1582.16431	1497.36926	1009.30835	1425.76526	1495.83032	1051.25525	1113.48755	1477.35132	890.12665	1345.78503	1474.72717	851.32227	1179.83411	1405.33740	1079.79883	1254.95874	1636.91235	909.11151	1381.01611	1710.71460	881.81165	1190.38965	1724.27869	849.05042	1072.45068	1717.76111	792.83716	955.30304	1682.22083	750.30231	845.93066	1736.45618	764.44580	846.54419	1723.46814	727.48969	771.35925	1325.87122	954.57123	1372.33508	1251.31030	957.91162	1150.02808	1233.01636	941.40393	1040.07556	1225.31238	914.87756	905.83032	1251.85120	869.81482	813.82050	1215.51196	909.52124	805.77264	1219.73181	878.75659	737.35962	1593.39978	871.68427	946.92273	1354.86414	896.27856	948.25806	1557.84656	1037.88953	972.18634	1409.79578	1052.43555	974.45166	1626.66699	936.33197	645.81848	1583.08423	945.52991	469.40814	1584.47437	1006.11823	282.78461	1540.33215	1033.50916	73.69087	1505.22498	1075.57141	39.67171	1503.30884	882.27014	35.24204	1302.32275	898.78894	655.80334	1325.31580	836.08478	485.41833	1329.99377	906.50897	305.37784	1381.67676	963.52930	98.55175	1442.13586	1002.29077	70.04953	1369.84644	835.48169	45.81810	1501.34082	944.58472	1685.53149																					 
97	0.960	1535.49304	844.58124	1628.04675	1404.81067	867.48541	1633.91663	1552.07837	968.87738	1576.19495	1422.51855	986.43616	1581.86584	1497.43494	1003.24542	1425.50110	1495.73120	1045.32361	1113.20081	1477.20129	884.13495	1345.40967	1474.79907	845.63690	1179.44946	1405.68164	1074.06299	1254.55640	1636.67651	902.79138	1380.84924	1710.62646	874.32648	1190.64868	1724.07251	840.23706	1073.07422	1717.36328	782.45996	956.84839	1681.41687	738.04028	848.24414	1735.54773	752.45996	848.35773	1722.53564	714.19550	773.97797	1325.60168	948.89923	1371.84497	1251.44312	952.67133	1149.48962	1233.26086	935.83838	1039.54431	1225.72668	908.76367	905.43622	1252.49902	863.18481	813.73022	1216.10828	902.85144	805.42218	1220.43872	871.52277	737.26245	1593.58374	865.85638	946.58832	1354.95483	889.98694	948.13196	1557.63342	1031.98621	971.71906	1409.58826	1046.29700	974.01843	1626.30591	932.04108	645.62012	1582.94849	942.77832	469.30460	1584.28772	1004.71375	283.01416	1540.38770	1033.50073	74.09245	1504.95813	1075.49683	40.19289	1503.49231	882.27252	35.47596	1302.23267	891.51031	655.84833	1326.15344	828.08752	485.66840	1330.80273	891.72552	303.13736	1382.50293	938.98029	93.90205	1443.06689	975.41992	63.33955	1369.26514	808.75079	46.13453	1501.06445	938.18011	1685.11108																					 
98	0.970	1535.08716	838.17645	1627.55823	1404.42578	861.35144	1633.42566	1551.87183	962.55652	1575.87524	1422.33521	980.28467	1581.54822	1497.38184	997.15619	1425.13611	1495.52014	1039.37341	1112.79150	1476.99377	878.17029	1344.94287	1474.80103	839.83569	1178.90417	1406.00500	1068.30017	1254.17615	1636.39282	896.50366	1380.58374	1710.38708	866.92603	1190.78857	1723.69946	831.67474	1073.60449	1716.74414	772.18671	958.32129	1680.57776	725.99268	850.66565	1734.49939	740.68933	850.14105	1721.41699	701.13904	776.55780	1325.44727	943.17554	1371.13086	1251.61096	947.38611	1148.83594	1233.60095	930.23218	1038.90942	1226.22131	902.54883	904.95557	1253.02014	856.48053	813.55023	1216.80151	896.16754	804.97290	1221.01794	864.64429	736.96338	1593.62305	859.86597	946.25049	1354.98242	883.88715	947.73407	1557.37708	1026.06494	971.25024	1409.33960	1040.11755	973.49713	1625.92139	927.70575	645.35980	1582.79626	939.97070	469.15628	1584.10828	1003.27600	283.24326	1540.59558	1033.82605	75.11752	1504.71448	1075.45508	40.78527	1503.53052	882.14844	35.43259	1302.02600	885.51019	655.76593	1327.03064	820.48145	485.69983	1331.60986	877.05933	301.07257	1383.04126	914.04285	89.47218	1443.61462	948.65863	57.64215	1368.85950	782.13342	46.55614	1500.82239	931.82220	1684.87756																					 
99	0.980	1534.66504	831.79572	1626.97852	1404.02710	855.05176	1632.80151	1551.59436	956.22827	1575.48694	1422.10962	974.12982	1581.15564	1497.28857	991.05359	1424.68726	1495.30029	1033.34192	1112.37109	1476.72961	872.14154	1344.41345	1474.81226	833.77063	1178.48340	1406.20630	1062.48975	1253.69055	1636.11353	890.20831	1380.31763	1710.13074	859.65668	1190.87720	1723.29919	823.23328	1074.03455	1716.00073	762.18494	959.65094	1679.49402	714.32269	852.87927	1733.35803	729.18549	851.92084	1720.04785	688.37170	779.07269	1325.23853	937.50092	1370.45215	1251.67896	942.18262	1148.11292	1233.79810	924.73657	1038.22888	1226.75134	896.38403	904.43170	1253.94250	850.20575	813.36633	1217.59534	889.46606	804.39673	1221.71985	857.80328	736.77527	1593.63293	854.00183	945.80872	1354.91882	877.68622	947.24188	1557.11389	1020.01202	970.72760	1409.09399	1033.96716	972.96637	1625.60071	923.37122	645.10028	1582.67542	937.10498	468.99414	1583.97290	1001.77582	283.45978	1540.38721	1033.46106	75.08552	1504.50427	1075.38245	41.31885	1503.59863	882.19220	35.29565	1301.82300	879.72565	655.14673	1328.00598	813.17041	485.53647	1332.40369	862.43585	299.23279	1383.48767	889.20337	85.97338	1444.19568	922.17114	53.03662	1368.49683	755.81403	47.06595	1500.51453	925.37646	1684.42310																					 
